<svg width="800" height="560" viewBox="0 0 800 560" fill="none" xmlns="http://www.w3.org/2000/svg">
  <rect width="800" height="560" rx="36" fill="#F6FAF4"/>
  <rect x="88" y="112" width="624" height="336" rx="24" fill="white" stroke="#DCE8DE" stroke-width="2"/>
  <rect x="152" y="168" width="136" height="96" rx="18" fill="#E4F1E8"/>
  <path d="M194 226H250" stroke="#1F6A3F" stroke-width="10" stroke-linecap="round"/>
  <path d="M224 196V256" stroke="#1F6A3F" stroke-width="10" stroke-linecap="round"/>
  <rect x="336" y="168" width="168" height="120" rx="22" fill="#F2F7EF" stroke="#DCE8DE" stroke-width="2"/>
  <path d="M404 190H404C428.2 190 448 209.8 448 234V254" stroke="#1F6A3F" stroke-width="12" stroke-linecap="round"/>
  <path d="M404 190V250" stroke="#1F6A3F" stroke-width="12" stroke-linecap="round"/>
  <path d="M360 254H448" stroke="#1F6A3F" stroke-width="10" stroke-linecap="round"/>
  <rect x="536" y="168" width="112" height="96" rx="18" fill="#EEF6EE"/>
  <path d="M564 214H620" stroke="#1F6A3F" stroke-width="10" stroke-linecap="round"/>
  <path d="M592 186V242" stroke="#1F6A3F" stroke-width="10" stroke-linecap="round"/>
  <rect x="208" y="316" width="384" height="92" rx="22" fill="#F8FCF7" stroke="#DCE8DE" stroke-width="2"/>
  <circle cx="256" cy="362" r="28" fill="#1F6A3F"/>
  <circle cx="256" cy="362" r="14" fill="white"/>
  <path d="M336 362H520" stroke="#1F6A3F" stroke-width="10" stroke-linecap="round"/>
  <path d="M352 336L400 362L352 388" stroke="#1F6A3F" stroke-width="10" stroke-linecap="round" stroke-linejoin="round"/>
  <circle cx="544" cy="362" r="18" fill="#D7E9DA"/>
</svg>